<?xml version="1.0" encoding="utf-8"?>
<!-- Generator: Adobe Illustrator 22.1.0, SVG Export Plug-In . SVG Version: 6.00 Build 0)  -->
<svg version="1.1" id="Layer_1" xmlns="http://www.w3.org/2000/svg" xmlns:xlink="http://www.w3.org/1999/xlink" x="0px" y="0px"
	 viewBox="0 0 300 69" style="enable-background:new 0 0 300 69;" xml:space="preserve">
<style type="text/css">
	.st0{fill:#FFFFFF;}
	.st1{fill:#2F5599;}
	.st2{fill:#39BBEC;}
	.st3{fill:#1B75BB;}
</style>
<g>
	<rect x="80.9" y="19.6" class="st0" width="10.1" height="33.6"/>
	<path class="st0" d="M117.4,53.1V33.7c0-5-1.8-7.1-5.7-7.1c-3.9,0-5.7,2.1-5.7,7.1v19.5h-9.7V19.6h9.7v3.8c2.1-2.7,6-4.1,9.5-4.1
		c7.8,0,11.5,4.4,11.5,13.8l0.1,20.1L117.4,53.1L117.4,53.1z"/>
	<path class="st0" d="M149,34c5.3,2.4,8.8,5.1,8.8,9.9c0,6.2-5.5,9.5-12.4,9.5c-5.1,0-11.3-2.2-14.9-6.2l5.9-5.9
		c2.7,2.8,5.9,4.1,8.1,4.1c2,0,3.1-0.7,3.1-2.1c0-2.1-2.4-3.3-6.8-5.5c-5.7-2.8-8.3-5.4-8.3-9.4c0-7,7.6-9.2,12.2-9.2
		c4.6,0,10.1,1.6,13.3,5.5l-5.7,5.7c-1.7-1.8-4.1-3.2-6.7-3.2c-1.2,0-2.9,0.6-2.9,2C142.7,30.8,143.7,31.6,149,34"/>
	<path class="st0" d="M171.7,19.6V39c0,5,1.8,7.1,5.7,7.1s5.7-2.1,5.7-7.1V19.6h9.7v33.6H183v-3.7c-2.1,2.7-6,4.1-9.5,4.1
		c-7.8,0-11.5-4.4-11.5-13.8l-0.1-20.1L171.7,19.6L171.7,19.6z"/>
	<path class="st0" d="M214.6,27.3c-5.8,0-7.1,4.3-7.1,12.3v13.6h-10.2V19.6h10.2v5.5c1.1-3.7,3.6-5.9,8.2-5.9c2.4,0,4.2,1,5.3,2.3
		l-1.4,7.8C219,28.9,217.4,27.3,214.6,27.3"/>
	<path class="st0" d="M230,13c-2.8,0-5.1-2.1-5.1-4.8c0-2.6,2.3-4.7,5.1-4.7c2.9,0,5.1,2.2,5.1,4.7C235.1,10.9,232.9,13,230,13
		 M224.9,19.6H235v33.6h-10.1V19.6z"/>
	<path class="st0" d="M86,13c-2.8,0-5.1-2.1-5.1-4.8c0-2.6,2.3-4.7,5.1-4.7c2.9,0,5.1,2.2,5.1,4.7C91,10.9,88.8,13,86,13 M80.8,19.6
		H91v33.6H80.8V19.6z"/>
	<path class="st0" d="M259.9,51.9c-1.2,0.8-3.2,1.6-6.8,1.6c-6.1,0-9.7-3.4-9.7-13V27.6h-3.6v-8h3.6V11h10.2v8.6h6.4v8h-6.4v12.1
		c0,5.1,2.1,7.2,6.4,5.7v6.5H259.9z"/>
	<path class="st0" d="M286.9,47.1c-5.3,13-8,16.5-14.8,16.5c-2.4,0-6.1-1-8.2-3.3l1.5-6.4c1.8,0.9,3.9,1.7,5.5,1.7
		c2.2,0,4.5-1.9,2.8-7.9l-11.1-28.2h10.1l7.6,21.1l7.6-21.1H298L286.9,47.1z"/>
	<g>
		<path class="st1" d="M15.7,24.9l6.3-11h23.8l0,0c0.1-2.5,0.1-5.1-0.1-7.6V6H23.2c-3.5,0-6.7,1.9-8.5,4.9L3.8,29.8l-1,1.7
			c-1.6,2.7-1.7,6-0.5,8.8c2.1-1.5,4.4-2.8,6.8-4s4.9-2.3,7.5-3.1c2.6-0.9,5.3-1.6,8-2.1c6.6-1.3,13.4-1.5,20.3-0.7
			c0.9-2.6,1.6-5.3,2.2-8C36.4,20.9,25.6,21.8,15.7,24.9z"/>
		<path class="st2" d="M67.3,31.6L56.5,12.7l-1-1.7c-1.6-2.7-4.3-4.5-7.4-4.8c0.2,2.6,0.3,5.2,0.1,7.9c-0.2,2.8-0.5,5.5-1.1,8.3
			c-0.5,2.7-1.3,5.4-2.2,8c-0.1,0.3-0.2,0.5-0.3,0.8c-2.2,6.1-5.3,11.8-9.2,17c1,1.2,2.1,2.3,3.3,3.5c0.9,0.8,1.7,1.6,2.6,2.4
			c4.7-6.1,8.5-13,11-20.1c1-2.8,1.8-5.6,2.5-8.4l6.3,10.9L49.2,57.1c2.1,1.4,4.4,2.6,6.6,3.7l0.3,0.1l11.2-19.5
			C69.1,38.3,69.1,34.6,67.3,31.6z"/>
		<path class="st3" d="M47.9,59c-2.3-1.5-4.5-3.2-6.6-5c-0.9-0.8-1.8-1.6-2.6-2.4c-1.1-1.1-2.2-2.3-3.3-3.5c-3.7-4.2-6.9-9-9.4-14.1
			c-0.5-1-0.9-2-1.4-3c-2.7,0.5-5.4,1.2-8,2.1c0.6,1.5,1.3,3,2,4.5c3.7,7.4,8.5,14.1,14.3,19.8c0.5,0.5,1.1,1.1,1.6,1.6H22
			L10.1,38.5l0,0c-2.3,1.1-4.5,2.4-6.5,3.9l-0.2,0.2L14.7,62c1.7,3,5,4.9,8.5,4.9H47c3.1,0,6.1-1.5,7.9-4
			C52.5,61.8,50.2,60.5,47.9,59z"/>
	</g>
</g>
</svg>
